<svg width="61" height="67" viewBox="0 0 61 67" fill="none" xmlns="http://www.w3.org/2000/svg">
<g filter="url(#filter0_d_65_230)">
<path d="M29.995 56.3535C43.0154 56.3535 53.5704 45.7762 53.5704 32.7285C53.5704 19.6807 43.0154 9.10345 29.995 9.10345C16.9747 9.10345 6.41968 19.6807 6.41968 32.7285C6.41968 45.7762 16.9747 56.3535 29.995 56.3535Z" stroke="#E8DCC8" shape-rendering="crispEdges"/>
</g>
<g filter="url(#filter1_gn_65_230)">
<mask id="path-2-outside-1_65_230" maskUnits="userSpaceOnUse" x="0.5" y="0.5" width="60" height="65" fill="black">
<rect fill="white" x="0.5" y="0.5" width="60" height="65"/>
<path d="M24.5055 33.7217C25.5194 35.8316 25.2567 36.2256 23.7173 34.9037C23.1071 35.7831 22.4941 36.6902 21.8788 37.6251C20.3023 39.9888 18.7211 41.3483 17.1349 41.7034C16.5005 41.8455 15.8648 41.8248 15.2279 41.6414C12.9987 40.9993 11.6335 39.4754 11.1321 37.0696C10.6268 34.6467 11.2759 32.88 13.0793 31.7697C14.8993 30.6556 15.3603 30.797 14.4622 32.1937C13.5808 33.5866 13.3056 35.0251 13.6364 36.5088C13.9673 37.9927 14.762 38.7658 16.0205 38.8281C17.2918 38.8696 19.0401 37.2372 21.2654 33.931C21.4452 33.6371 21.6354 33.35 21.8359 33.0696C20.5765 31.6669 19.4725 30.0573 18.5241 28.2408C17.5025 26.3319 16.6009 24.2151 15.8196 21.8902C15.6719 22.0139 15.5344 22.1442 15.4072 22.2815C12.6775 24.9759 10.3701 26.1447 8.48497 25.7879C6.61656 25.4273 5.09503 24.6178 3.92038 23.3591C2.85998 22.2198 2.1355 20.7788 1.74692 19.0362L1.6315 18.5186C1.28023 16.5502 1.6327 14.6326 2.6889 12.7658C3.55237 11.2138 4.81888 10.2508 6.48846 9.87699C6.82238 9.80222 7.17041 9.75144 7.53257 9.72477C9.72217 9.56047 11.4119 10.3777 12.6018 12.1764C13.8046 13.9541 13.7029 14.4026 12.2971 13.5218C10.8911 12.641 9.38231 12.2814 7.77059 12.443C6.17172 12.5837 5.03803 13.7886 4.36955 16.0578C3.70106 18.3269 4.45296 20.3232 6.62531 22.0469C8.69879 23.7202 11.4787 22.7444 14.9652 19.1197C14.2584 16.5787 14.5699 16.2463 15.8998 18.1224C19.3027 14.5163 22.0958 12.342 24.2792 11.5995C26.5795 10.8308 28.4666 11.0785 29.9405 12.3426C31.4271 13.5857 32.1143 15.3702 32.0018 17.696C31.8894 20.0218 30.807 21.3782 28.7547 21.7653C26.7192 22.1486 25.4861 20.9032 25.0555 18.0287C27.6104 20.21 29.1116 20.2996 29.5591 18.2973C30.0233 16.2913 29.4877 14.8714 27.952 14.0379C26.433 13.2005 24.6491 13.6905 22.6003 15.5079C21.0459 16.8705 19.3041 18.4923 17.3746 20.3735C18.7044 22.4851 19.7383 24.2916 20.4762 25.7929C21.1898 27.2635 22.0888 29.0548 23.1733 31.167C24.751 28.9659 26.3235 26.9382 27.8908 25.0837C30.103 22.505 32.4315 21.5489 34.8764 22.2151C37.1018 22.8399 38.4702 24.2997 38.9819 26.5944C39.0358 26.836 39.0794 27.0708 39.1127 27.2988C39.492 30.0218 38.6908 31.6957 36.709 32.3206C34.7235 32.9282 32.9915 31.568 31.5131 28.2397C34.6395 30.5467 36.3076 30.7167 36.5175 28.7496C36.7237 26.765 35.8977 25.537 34.0396 25.0655C32.1943 24.5729 30.2573 25.7131 28.2287 28.4861C27.0018 30.1375 25.7607 31.8828 24.5055 33.7217ZM19.4161 1.5C20.4305 1.5 21.2868 1.84436 21.9851 2.53308C22.6701 3.2218 23.0126 4.04827 23.0126 5.01248C23.0126 5.96138 22.6635 6.7802 21.9652 7.46892C21.267 8.15768 20.4173 8.50203 19.4161 8.50203C18.428 8.50203 17.5849 8.15768 16.8867 7.46892C16.1753 6.7802 15.8196 5.96138 15.8196 5.01248C15.8196 4.04827 16.1687 3.2218 16.8669 2.53308C17.5651 1.84436 18.4149 1.5 19.4161 1.5ZM19.4358 3.08406C18.9616 3.08406 18.5598 3.26772 18.2305 3.63504C17.8879 4.00235 17.7166 4.4462 17.7166 4.96656C17.7166 5.45632 17.8879 5.88486 18.2305 6.25218C18.5598 6.6195 18.9616 6.80316 19.4358 6.80316C19.9101 6.80316 20.3119 6.6195 20.6413 6.25218C20.9706 5.88486 21.1354 5.45632 21.1354 4.96656C21.1354 4.4462 20.9706 4.00235 20.6413 3.63504C20.3119 3.26772 19.9101 3.08406 19.4358 3.08406ZM24.5055 40.7625C27.5191 36.7764 30.271 35.397 32.7611 36.6244C35.2685 37.8492 35.6602 40.0606 33.9358 43.2584C32.209 46.4389 31.5067 48.7914 31.829 50.3158C32.1485 51.8228 32.62 53.038 33.2431 53.9619C33.8836 54.883 34.9027 55.4778 36.3002 55.7462C37.715 56.0118 39.0322 55.8722 40.2519 55.3273C41.4888 54.7796 42.4573 53.5847 43.1573 51.7423C43.8573 49.8999 43.9613 46.4947 43.4696 41.5265C42.9952 36.5556 42.819 31.9593 42.941 27.7375C43.0779 23.4955 43.9485 20.0262 45.553 17.3296C47.1549 14.6155 49.0532 12.9648 51.2479 12.3774C51.5913 12.2889 51.9113 12.2219 52.2077 12.1764C53.969 11.906 55.3974 12.2591 56.4926 13.2356C57.7916 14.3776 58.794 15.6813 59.5 17.1468C56.7987 14.7714 54.4674 13.94 52.506 14.6525C50.5446 15.3649 48.9704 16.7423 47.7834 18.7847C46.6139 20.8243 45.9726 24.0438 45.8599 28.443C45.7445 32.8248 45.9816 37.528 46.5713 42.5527C47.1757 47.5572 46.7744 51.2943 45.3672 53.7638C43.9573 56.2161 42.21 57.7452 40.1252 58.3514C39.6127 58.5016 39.1124 58.6143 38.6241 58.6892C37.0895 58.9248 35.6335 58.7996 34.2564 58.3134C32.4434 57.6618 31.1189 56.5862 30.2828 55.087C29.4616 53.5677 29.01 51.7233 28.9282 49.5538C28.8464 47.3843 29.5232 45.2147 30.9583 43.0449C32.3908 40.8575 32.3554 39.5752 30.852 39.1979C29.3662 38.818 27.2506 39.3395 24.5055 40.7625ZM50.2766 59.6857L48.284 61.3835L50.2442 63.2208L49.3532 64.5L47.2796 62.4765L45.206 64.4302L44.315 63.058L46.3238 61.337L44.396 59.3601L45.3842 58.3134L47.393 60.3136L49.4666 58.3367L50.2766 59.6857Z"/>
</mask>
<path d="M24.5055 33.7217C25.5194 35.8316 25.2567 36.2256 23.7173 34.9037C23.1071 35.7831 22.4941 36.6902 21.8788 37.6251C20.3023 39.9888 18.7211 41.3483 17.1349 41.7034C16.5005 41.8455 15.8648 41.8248 15.2279 41.6414C12.9987 40.9993 11.6335 39.4754 11.1321 37.0696C10.6268 34.6467 11.2759 32.88 13.0793 31.7697C14.8993 30.6556 15.3603 30.797 14.4622 32.1937C13.5808 33.5866 13.3056 35.0251 13.6364 36.5088C13.9673 37.9927 14.762 38.7658 16.0205 38.8281C17.2918 38.8696 19.0401 37.2372 21.2654 33.931C21.4452 33.6371 21.6354 33.35 21.8359 33.0696C20.5765 31.6669 19.4725 30.0573 18.5241 28.2408C17.5025 26.3319 16.6009 24.2151 15.8196 21.8902C15.6719 22.0139 15.5344 22.1442 15.4072 22.2815C12.6775 24.9759 10.3701 26.1447 8.48497 25.7879C6.61656 25.4273 5.09503 24.6178 3.92038 23.3591C2.85998 22.2198 2.1355 20.7788 1.74692 19.0362L1.6315 18.5186C1.28023 16.5502 1.6327 14.6326 2.6889 12.7658C3.55237 11.2138 4.81888 10.2508 6.48846 9.87699C6.82238 9.80222 7.17041 9.75144 7.53257 9.72477C9.72217 9.56047 11.4119 10.3777 12.6018 12.1764C13.8046 13.9541 13.7029 14.4026 12.2971 13.5218C10.8911 12.641 9.38231 12.2814 7.77059 12.443C6.17172 12.5837 5.03803 13.7886 4.36955 16.0578C3.70106 18.3269 4.45296 20.3232 6.62531 22.0469C8.69879 23.7202 11.4787 22.7444 14.9652 19.1197C14.2584 16.5787 14.5699 16.2463 15.8998 18.1224C19.3027 14.5163 22.0958 12.342 24.2792 11.5995C26.5795 10.8308 28.4666 11.0785 29.9405 12.3426C31.4271 13.5857 32.1143 15.3702 32.0018 17.696C31.8894 20.0218 30.807 21.3782 28.7547 21.7653C26.7192 22.1486 25.4861 20.9032 25.0555 18.0287C27.6104 20.21 29.1116 20.2996 29.5591 18.2973C30.0233 16.2913 29.4877 14.8714 27.952 14.0379C26.433 13.2005 24.6491 13.6905 22.6003 15.5079C21.0459 16.8705 19.3041 18.4923 17.3746 20.3735C18.7044 22.4851 19.7383 24.2916 20.4762 25.7929C21.1898 27.2635 22.0888 29.0548 23.1733 31.167C24.751 28.9659 26.3235 26.9382 27.8908 25.0837C30.103 22.505 32.4315 21.5489 34.8764 22.2151C37.1018 22.8399 38.4702 24.2997 38.9819 26.5944C39.0358 26.836 39.0794 27.0708 39.1127 27.2988C39.492 30.0218 38.6908 31.6957 36.709 32.3206C34.7235 32.9282 32.9915 31.568 31.5131 28.2397C34.6395 30.5467 36.3076 30.7167 36.5175 28.7496C36.7237 26.765 35.8977 25.537 34.0396 25.0655C32.1943 24.5729 30.2573 25.7131 28.2287 28.4861C27.0018 30.1375 25.7607 31.8828 24.5055 33.7217ZM19.4161 1.5C20.4305 1.5 21.2868 1.84436 21.9851 2.53308C22.6701 3.2218 23.0126 4.04827 23.0126 5.01248C23.0126 5.96138 22.6635 6.7802 21.9652 7.46892C21.267 8.15768 20.4173 8.50203 19.4161 8.50203C18.428 8.50203 17.5849 8.15768 16.8867 7.46892C16.1753 6.7802 15.8196 5.96138 15.8196 5.01248C15.8196 4.04827 16.1687 3.2218 16.8669 2.53308C17.5651 1.84436 18.4149 1.5 19.4161 1.5ZM19.4358 3.08406C18.9616 3.08406 18.5598 3.26772 18.2305 3.63504C17.8879 4.00235 17.7166 4.4462 17.7166 4.96656C17.7166 5.45632 17.8879 5.88486 18.2305 6.25218C18.5598 6.6195 18.9616 6.80316 19.4358 6.80316C19.9101 6.80316 20.3119 6.6195 20.6413 6.25218C20.9706 5.88486 21.1354 5.45632 21.1354 4.96656C21.1354 4.4462 20.9706 4.00235 20.6413 3.63504C20.3119 3.26772 19.9101 3.08406 19.4358 3.08406ZM24.5055 40.7625C27.5191 36.7764 30.271 35.397 32.7611 36.6244C35.2685 37.8492 35.6602 40.0606 33.9358 43.2584C32.209 46.4389 31.5067 48.7914 31.829 50.3158C32.1485 51.8228 32.62 53.038 33.2431 53.9619C33.8836 54.883 34.9027 55.4778 36.3002 55.7462C37.715 56.0118 39.0322 55.8722 40.2519 55.3273C41.4888 54.7796 42.4573 53.5847 43.1573 51.7423C43.8573 49.8999 43.9613 46.4947 43.4696 41.5265C42.9952 36.5556 42.819 31.9593 42.941 27.7375C43.0779 23.4955 43.9485 20.0262 45.553 17.3296C47.1549 14.6155 49.0532 12.9648 51.2479 12.3774C51.5913 12.2889 51.9113 12.2219 52.2077 12.1764C53.969 11.906 55.3974 12.2591 56.4926 13.2356C57.7916 14.3776 58.794 15.6813 59.5 17.1468C56.7987 14.7714 54.4674 13.94 52.506 14.6525C50.5446 15.3649 48.9704 16.7423 47.7834 18.7847C46.6139 20.8243 45.9726 24.0438 45.8599 28.443C45.7445 32.8248 45.9816 37.528 46.5713 42.5527C47.1757 47.5572 46.7744 51.2943 45.3672 53.7638C43.9573 56.2161 42.21 57.7452 40.1252 58.3514C39.6127 58.5016 39.1124 58.6143 38.6241 58.6892C37.0895 58.9248 35.6335 58.7996 34.2564 58.3134C32.4434 57.6618 31.1189 56.5862 30.2828 55.087C29.4616 53.5677 29.01 51.7233 28.9282 49.5538C28.8464 47.3843 29.5232 45.2147 30.9583 43.0449C32.3908 40.8575 32.3554 39.5752 30.852 39.1979C29.3662 38.818 27.2506 39.3395 24.5055 40.7625ZM50.2766 59.6857L48.284 61.3835L50.2442 63.2208L49.3532 64.5L47.2796 62.4765L45.206 64.4302L44.315 63.058L46.3238 61.337L44.396 59.3601L45.3842 58.3134L47.393 60.3136L49.4666 58.3367L50.2766 59.6857Z" fill="url(#paint0_linear_65_230)"/>
<path d="M24.5055 33.7217C25.5194 35.8316 25.2567 36.2256 23.7173 34.9037C23.1071 35.7831 22.4941 36.6902 21.8788 37.6251C20.3023 39.9888 18.7211 41.3483 17.1349 41.7034C16.5005 41.8455 15.8648 41.8248 15.2279 41.6414C12.9987 40.9993 11.6335 39.4754 11.1321 37.0696C10.6268 34.6467 11.2759 32.88 13.0793 31.7697C14.8993 30.6556 15.3603 30.797 14.4622 32.1937C13.5808 33.5866 13.3056 35.0251 13.6364 36.5088C13.9673 37.9927 14.762 38.7658 16.0205 38.8281C17.2918 38.8696 19.0401 37.2372 21.2654 33.931C21.4452 33.6371 21.6354 33.35 21.8359 33.0696C20.5765 31.6669 19.4725 30.0573 18.5241 28.2408C17.5025 26.3319 16.6009 24.2151 15.8196 21.8902C15.6719 22.0139 15.5344 22.1442 15.4072 22.2815C12.6775 24.9759 10.3701 26.1447 8.48497 25.7879C6.61656 25.4273 5.09503 24.6178 3.92038 23.3591C2.85998 22.2198 2.1355 20.7788 1.74692 19.0362L1.6315 18.5186C1.28023 16.5502 1.6327 14.6326 2.6889 12.7658C3.55237 11.2138 4.81888 10.2508 6.48846 9.87699C6.82238 9.80222 7.17041 9.75144 7.53257 9.72477C9.72217 9.56047 11.4119 10.3777 12.6018 12.1764C13.8046 13.9541 13.7029 14.4026 12.2971 13.5218C10.8911 12.641 9.38231 12.2814 7.77059 12.443C6.17172 12.5837 5.03803 13.7886 4.36955 16.0578C3.70106 18.3269 4.45296 20.3232 6.62531 22.0469C8.69879 23.7202 11.4787 22.7444 14.9652 19.1197C14.2584 16.5787 14.5699 16.2463 15.8998 18.1224C19.3027 14.5163 22.0958 12.342 24.2792 11.5995C26.5795 10.8308 28.4666 11.0785 29.9405 12.3426C31.4271 13.5857 32.1143 15.3702 32.0018 17.696C31.8894 20.0218 30.807 21.3782 28.7547 21.7653C26.7192 22.1486 25.4861 20.9032 25.0555 18.0287C27.6104 20.21 29.1116 20.2996 29.5591 18.2973C30.0233 16.2913 29.4877 14.8714 27.952 14.0379C26.433 13.2005 24.6491 13.6905 22.6003 15.5079C21.0459 16.8705 19.3041 18.4923 17.3746 20.3735C18.7044 22.4851 19.7383 24.2916 20.4762 25.7929C21.1898 27.2635 22.0888 29.0548 23.1733 31.167C24.751 28.9659 26.3235 26.9382 27.8908 25.0837C30.103 22.505 32.4315 21.5489 34.8764 22.2151C37.1018 22.8399 38.4702 24.2997 38.9819 26.5944C39.0358 26.836 39.0794 27.0708 39.1127 27.2988C39.492 30.0218 38.6908 31.6957 36.709 32.3206C34.7235 32.9282 32.9915 31.568 31.5131 28.2397C34.6395 30.5467 36.3076 30.7167 36.5175 28.7496C36.7237 26.765 35.8977 25.537 34.0396 25.0655C32.1943 24.5729 30.2573 25.7131 28.2287 28.4861C27.0018 30.1375 25.7607 31.8828 24.5055 33.7217ZM19.4161 1.5C20.4305 1.5 21.2868 1.84436 21.9851 2.53308C22.6701 3.2218 23.0126 4.04827 23.0126 5.01248C23.0126 5.96138 22.6635 6.7802 21.9652 7.46892C21.267 8.15768 20.4173 8.50203 19.4161 8.50203C18.428 8.50203 17.5849 8.15768 16.8867 7.46892C16.1753 6.7802 15.8196 5.96138 15.8196 5.01248C15.8196 4.04827 16.1687 3.2218 16.8669 2.53308C17.5651 1.84436 18.4149 1.5 19.4161 1.5ZM19.4358 3.08406C18.9616 3.08406 18.5598 3.26772 18.2305 3.63504C17.8879 4.00235 17.7166 4.4462 17.7166 4.96656C17.7166 5.45632 17.8879 5.88486 18.2305 6.25218C18.5598 6.6195 18.9616 6.80316 19.4358 6.80316C19.9101 6.80316 20.3119 6.6195 20.6413 6.25218C20.9706 5.88486 21.1354 5.45632 21.1354 4.96656C21.1354 4.4462 20.9706 4.00235 20.6413 3.63504C20.3119 3.26772 19.9101 3.08406 19.4358 3.08406ZM24.5055 40.7625C27.5191 36.7764 30.271 35.397 32.7611 36.6244C35.2685 37.8492 35.6602 40.0606 33.9358 43.2584C32.209 46.4389 31.5067 48.7914 31.829 50.3158C32.1485 51.8228 32.62 53.038 33.2431 53.9619C33.8836 54.883 34.9027 55.4778 36.3002 55.7462C37.715 56.0118 39.0322 55.8722 40.2519 55.3273C41.4888 54.7796 42.4573 53.5847 43.1573 51.7423C43.8573 49.8999 43.9613 46.4947 43.4696 41.5265C42.9952 36.5556 42.819 31.9593 42.941 27.7375C43.0779 23.4955 43.9485 20.0262 45.553 17.3296C47.1549 14.6155 49.0532 12.9648 51.2479 12.3774C51.5913 12.2889 51.9113 12.2219 52.2077 12.1764C53.969 11.906 55.3974 12.2591 56.4926 13.2356C57.7916 14.3776 58.794 15.6813 59.5 17.1468C56.7987 14.7714 54.4674 13.94 52.506 14.6525C50.5446 15.3649 48.9704 16.7423 47.7834 18.7847C46.6139 20.8243 45.9726 24.0438 45.8599 28.443C45.7445 32.8248 45.9816 37.528 46.5713 42.5527C47.1757 47.5572 46.7744 51.2943 45.3672 53.7638C43.9573 56.2161 42.21 57.7452 40.1252 58.3514C39.6127 58.5016 39.1124 58.6143 38.6241 58.6892C37.0895 58.9248 35.6335 58.7996 34.2564 58.3134C32.4434 57.6618 31.1189 56.5862 30.2828 55.087C29.4616 53.5677 29.01 51.7233 28.9282 49.5538C28.8464 47.3843 29.5232 45.2147 30.9583 43.0449C32.3908 40.8575 32.3554 39.5752 30.852 39.1979C29.3662 38.818 27.2506 39.3395 24.5055 40.7625ZM50.2766 59.6857L48.284 61.3835L50.2442 63.2208L49.3532 64.5L47.2796 62.4765L45.206 64.4302L44.315 63.058L46.3238 61.337L44.396 59.3601L45.3842 58.3134L47.393 60.3136L49.4666 58.3367L50.2766 59.6857Z" stroke="#F4EEE6" mask="url(#path-2-outside-1_65_230)"/>
</g>
<defs>
<filter id="filter0_d_65_230" x="1.91968" y="8.60345" width="56.1508" height="56.25" filterUnits="userSpaceOnUse" color-interpolation-filters="sRGB">
<feFlood flood-opacity="0" result="BackgroundImageFix"/>
<feColorMatrix in="SourceAlpha" type="matrix" values="0 0 0 0 0 0 0 0 0 0 0 0 0 0 0 0 0 0 127 0" result="hardAlpha"/>
<feOffset dy="4"/>
<feGaussianBlur stdDeviation="2"/>
<feComposite in2="hardAlpha" operator="out"/>
<feColorMatrix type="matrix" values="0 0 0 0 0 0 0 0 0 0 0 0 0 0 0 0 0 0 0.25 0"/>
<feBlend mode="normal" in2="BackgroundImageFix" result="effect1_dropShadow_65_230"/>
<feBlend mode="normal" in="SourceGraphic" in2="effect1_dropShadow_65_230" result="shape"/>
</filter>
<filter id="filter1_gn_65_230" x="0" y="0" width="60.9504" height="66.2699" filterUnits="userSpaceOnUse" color-interpolation-filters="sRGB">
<feFlood flood-opacity="0" result="BackgroundImageFix"/>
<feBlend mode="normal" in="SourceGraphic" in2="BackgroundImageFix" result="shape"/>
<feTurbulence type="fractalNoise" baseFrequency="0.033333335071802139 0.033333335071802139" numOctaves="3" seed="3790" />
<feDisplacementMap in="shape" scale="2" xChannelSelector="R" yChannelSelector="G" result="displacedImage" width="100%" height="100%" />
<feMerge result="effect1_texture_65_230">
<feMergeNode in="displacedImage"/>
</feMerge>
<feTurbulence type="fractalNoise" baseFrequency="10 10" stitchTiles="stitch" numOctaves="3" result="noise" seed="7728" />
<feColorMatrix in="noise" type="luminanceToAlpha" result="alphaNoise" />
<feComponentTransfer in="alphaNoise" result="coloredNoise1">
<feFuncA type="discrete" tableValues="1 1 1 1 1 1 1 1 1 1 1 1 1 1 1 1 1 1 1 1 1 1 1 1 1 1 1 1 1 1 1 1 1 1 1 1 1 1 1 1 1 1 1 1 1 1 1 1 1 1 1 0 0 0 0 0 0 0 0 0 0 0 0 0 0 0 0 0 0 0 0 0 0 0 0 0 0 0 0 0 0 0 0 0 0 0 0 0 0 0 0 0 0 0 0 0 0 0 0 0 "/>
</feComponentTransfer>
<feComposite operator="in" in2="effect1_texture_65_230" in="coloredNoise1" result="noise1Clipped" />
<feFlood flood-color="rgba(0, 0, 0, 0.25)" result="color1Flood" />
<feComposite operator="in" in2="noise1Clipped" in="color1Flood" result="color1" />
<feMerge result="effect2_noise_65_230">
<feMergeNode in="effect1_texture_65_230" />
<feMergeNode in="color1" />
</feMerge>
</filter>
<linearGradient id="paint0_linear_65_230" x1="19.9846" y1="1.5" x2="44.2897" y2="63.2104" gradientUnits="userSpaceOnUse">
<stop stop-color="white"/>
<stop offset="0.336538" stop-color="#F4EEE6"/>
<stop offset="0.673077" stop-color="#CF9FB8"/>
<stop offset="1" stop-color="#96AAE0"/>
</linearGradient>
</defs>
</svg>
